<?xml version="1.0" encoding="us-ascii" standalone="no"?><svg xmlns="http://www.w3.org/2000/svg" xmlns:xlink="http://www.w3.org/1999/xlink" contentStyleType="text/css" height="473px" preserveAspectRatio="none" style="width:637px;height:473px;background:#FFFFFF;" version="1.1" viewBox="0 0 637 473" width="637px" zoomAndPan="magnify"><defs/><g><!--entity BIDS--><g id="elem_BIDS"><rect fill="#F1F1F1" height="46.2969" rx="2.5" ry="2.5" style="stroke:#181818;stroke-width:0.5;" width="115" x="7" y="7"/><rect fill="#F1F1F1" height="10" style="stroke:#181818;stroke-width:0.5;" width="15" x="102" y="12"/><rect fill="#F1F1F1" height="2" style="stroke:#181818;stroke-width:0.5;" width="4" x="100" y="14"/><rect fill="#F1F1F1" height="2" style="stroke:#181818;stroke-width:0.5;" width="4" x="100" y="18"/><text fill="#000000" font-family="sans-serif" font-size="14" lengthAdjust="spacing" textLength="75" x="22" y="39.9951">bid-service</text></g><!--entity BIDS_TOPIC--><g id="elem_BIDS_TOPIC"><path d="M40,155.8 C40,145.8 64.5,145.8 64.5,145.8 C64.5,145.8 89,145.8 89,155.8 L89,181.0969 C89,191.0969 64.5,191.0969 64.5,191.0969 C64.5,191.0969 40,191.0969 40,181.0969 L40,155.8 " fill="#F1F1F1" style="stroke:#181818;stroke-width:0.5;"/><path d="M40,155.8 C40,165.8 64.5,165.8 64.5,165.8 C64.5,165.8 89,165.8 89,155.8 " fill="none" style="stroke:#181818;stroke-width:0.5;"/><text fill="#000000" font-family="sans-serif" font-size="14" lengthAdjust="spacing" textLength="29" x="50" y="182.7951">bids</text></g><!--entity AUCTION--><g id="elem_AUCTION"><rect fill="#F1F1F1" height="46.2969" rx="2.5" ry="2.5" style="stroke:#181818;stroke-width:0.5;" width="145" x="201" y="145.3"/><rect fill="#F1F1F1" height="10" style="stroke:#181818;stroke-width:0.5;" width="15" x="326" y="150.3"/><rect fill="#F1F1F1" height="2" style="stroke:#181818;stroke-width:0.5;" width="4" x="324" y="152.3"/><rect fill="#F1F1F1" height="2" style="stroke:#181818;stroke-width:0.5;" width="4" x="324" y="156.3"/><text fill="#000000" font-family="sans-serif" font-size="14" lengthAdjust="spacing" textLength="105" x="216" y="178.2951">auction-service</text></g><!--entity AUCTION_TOPIC--><g id="elem_AUCTION_TOPIC"><path d="M238,293.6 C238,283.6 273.5,283.6 273.5,283.6 C273.5,283.6 309,283.6 309,293.6 L309,318.8969 C309,328.8969 273.5,328.8969 273.5,328.8969 C273.5,328.8969 238,328.8969 238,318.8969 L238,293.6 " fill="#F1F1F1" style="stroke:#181818;stroke-width:0.5;"/><path d="M238,293.6 C238,303.6 273.5,303.6 273.5,303.6 C273.5,303.6 309,303.6 309,293.6 " fill="none" style="stroke:#181818;stroke-width:0.5;"/><text fill="#000000" font-family="sans-serif" font-size="14" lengthAdjust="spacing" textLength="51" x="248" y="320.5951">auction</text></g><!--entity PRODUCT--><g id="elem_PRODUCT"><rect fill="#F1F1F1" height="46.2969" rx="2.5" ry="2.5" style="stroke:#181818;stroke-width:0.5;" width="148" x="461.5" y="7"/><rect fill="#F1F1F1" height="10" style="stroke:#181818;stroke-width:0.5;" width="15" x="589.5" y="12"/><rect fill="#F1F1F1" height="2" style="stroke:#181818;stroke-width:0.5;" width="4" x="587.5" y="14"/><rect fill="#F1F1F1" height="2" style="stroke:#181818;stroke-width:0.5;" width="4" x="587.5" y="18"/><text fill="#000000" font-family="sans-serif" font-size="14" lengthAdjust="spacing" textLength="108" x="476.5" y="39.9951">product-service</text></g><!--entity PRODUCT_TOPIC--><g id="elem_PRODUCT_TOPIC"><path d="M494.5,155.8 C494.5,145.8 535.5,145.8 535.5,145.8 C535.5,145.8 576.5,145.8 576.5,155.8 L576.5,181.0969 C576.5,191.0969 535.5,191.0969 535.5,191.0969 C535.5,191.0969 494.5,191.0969 494.5,181.0969 L494.5,155.8 " fill="#F1F1F1" style="stroke:#181818;stroke-width:0.5;"/><path d="M494.5,155.8 C494.5,165.8 535.5,165.8 535.5,165.8 C535.5,165.8 576.5,165.8 576.5,155.8 " fill="none" style="stroke:#181818;stroke-width:0.5;"/><text fill="#000000" font-family="sans-serif" font-size="14" lengthAdjust="spacing" textLength="62" x="504.5" y="182.7951">products</text></g><!--entity INFO--><g id="elem_INFO"><rect fill="#F1F1F1" height="46.2969" rx="2.5" ry="2.5" style="stroke:#181818;stroke-width:0.5;" width="119" x="214" y="420.89"/><rect fill="#F1F1F1" height="10" style="stroke:#181818;stroke-width:0.5;" width="15" x="313" y="425.89"/><rect fill="#F1F1F1" height="2" style="stroke:#181818;stroke-width:0.5;" width="4" x="311" y="427.89"/><rect fill="#F1F1F1" height="2" style="stroke:#181818;stroke-width:0.5;" width="4" x="311" y="431.89"/><text fill="#000000" font-family="sans-serif" font-size="14" lengthAdjust="spacing" textLength="79" x="229" y="453.8851">info-service</text></g><!--link BIDS to BIDS_TOPIC--><g id="link_BIDS_BIDS_TOPIC"><path d="M64.5,53.66 C64.5,77.18 64.5,114.12 64.5,139.49 " fill="none" id="BIDS-to-BIDS_TOPIC" style="stroke:#181818;stroke-width:1.0;"/><polygon fill="#181818" points="64.5,144.36,68.5,135.36,64.5,139.36,60.5,135.36,64.5,144.36" style="stroke:#181818;stroke-width:1.0;"/><text fill="#000000" font-family="sans-serif" font-size="13" lengthAdjust="spacing" textLength="63" x="65.5" y="96.3669">stores bid</text><text fill="#000000" font-family="sans-serif" font-size="13" lengthAdjust="spacing" textLength="43" x="75.5" y="111.4997">events</text></g><!--link AUCTION to AUCTION_TOPIC--><g id="link_AUCTION_AUCTION_TOPIC"><path d="M273.5,191.87 C273.5,215.3 273.5,252.11 273.5,277.39 " fill="none" id="AUCTION-to-AUCTION_TOPIC" style="stroke:#181818;stroke-width:1.0;"/><polygon fill="#181818" points="273.5,282.24,277.5,273.24,273.5,277.24,269.5,273.24,273.5,282.24" style="stroke:#181818;stroke-width:1.0;"/><text fill="#000000" font-family="sans-serif" font-size="13" lengthAdjust="spacing" textLength="63" x="274.5" y="234.6669">store final</text><text fill="#000000" font-family="sans-serif" font-size="13" lengthAdjust="spacing" textLength="34" x="289" y="249.7997">deals</text></g><!--link BIDS_TOPIC to AUCTION--><g id="link_BIDS_TOPIC_AUCTION"><path d="M89.3,168.45 C115.26,168.45 157.4,168.45 194.82,168.45 " fill="none" id="BIDS_TOPIC-to-AUCTION" style="stroke:#181818;stroke-width:1.0;"/><polygon fill="#181818" points="199.78,168.45,190.78,164.45,194.78,168.45,190.78,172.45,199.78,168.45" style="stroke:#181818;stroke-width:1.0;"/><text fill="#000000" font-family="sans-serif" font-size="13" lengthAdjust="spacing" textLength="75" x="107.5" y="146.5169">updates bid</text><text fill="#000000" font-family="sans-serif" font-size="13" lengthAdjust="spacing" textLength="43" x="123.5" y="161.6497">events</text></g><!--link PRODUCT to PRODUCT_TOPIC--><g id="link_PRODUCT_PRODUCT_TOPIC"><path d="M535.5,53.66 C535.5,77.18 535.5,114.12 535.5,139.49 " fill="none" id="PRODUCT-to-PRODUCT_TOPIC" style="stroke:#181818;stroke-width:1.0;"/><polygon fill="#181818" points="535.5,144.36,539.5,135.36,535.5,139.36,531.5,135.36,535.5,144.36" style="stroke:#181818;stroke-width:1.0;"/><text fill="#000000" font-family="sans-serif" font-size="13" lengthAdjust="spacing" textLength="93" x="536.5" y="96.3669">stores product</text><text fill="#000000" font-family="sans-serif" font-size="13" lengthAdjust="spacing" textLength="43" x="561.5" y="111.4997">events</text></g><!--link AUCTION to PRODUCT_TOPIC--><g id="link_AUCTION_PRODUCT_TOPIC"><path d="M346.48,168.45 C391.94,168.45 449.08,168.45 488.57,168.45 " fill="none" id="AUCTION-to-PRODUCT_TOPIC" style="stroke:#181818;stroke-width:1.0;"/><polygon fill="#181818" points="493.27,168.45,484.27,164.45,488.27,168.45,484.27,172.45,493.27,168.45" style="stroke:#181818;stroke-width:1.0;"/><text fill="#000000" font-family="sans-serif" font-size="13" lengthAdjust="spacing" textLength="112" x="364.25" y="146.5169">updates products</text><text fill="#000000" font-family="sans-serif" font-size="13" lengthAdjust="spacing" textLength="91" x="374.75" y="161.6497">with new state</text></g><!--reverse link AUCTION to PRODUCT_TOPIC--><g id="link_AUCTION_PRODUCT_TOPIC"><path d="M329.89,194.08 C340.75,197.96 352.19,201.37 363.25,203.45 C388.15,208.13 452.84,210.22 477.25,203.45 C486.46,200.89 495.67,196.45 503.96,191.57 " fill="none" id="AUCTION-backto-PRODUCT_TOPIC" style="stroke:#181818;stroke-width:1.0;"/><polygon fill="#181818" points="325.26,192,332.3194,198.8677,329.951,193.7305,335.0882,191.3621,325.26,192" style="stroke:#181818;stroke-width:1.0;"/><text fill="#000000" font-family="sans-serif" font-size="13" lengthAdjust="spacing" textLength="112" x="364.25" y="184.5169">updates products</text><text fill="#000000" font-family="sans-serif" font-size="13" lengthAdjust="spacing" textLength="43" x="398.75" y="199.6497">events</text></g><!--link BIDS_TOPIC to INFO--><g id="link_BIDS_TOPIC_INFO"><path d="M73.94,191.37 C88.29,223.36 117.63,283.91 152.5,328.89 C178.51,362.44 214.54,395.1 240.52,416.83 " fill="none" id="BIDS_TOPIC-to-INFO" style="stroke:#181818;stroke-width:1.0;"/><polygon fill="#181818" points="243.92,420.49,239.5635,411.657,240.0777,417.2905,234.4443,417.8047,243.92,420.49" style="stroke:#181818;stroke-width:1.0;"/><text fill="#000000" font-family="sans-serif" font-size="13" lengthAdjust="spacing" textLength="52" x="160.5" y="303.3069">updates</text><text fill="#000000" font-family="sans-serif" font-size="13" lengthAdjust="spacing" textLength="66" x="153.5" y="318.4397">bid events</text></g><!--link PRODUCT_TOPIC to INFO--><g id="link_PRODUCT_TOPIC_INFO"><path d="M522.7,191.59 C497.18,234.32 436.26,329.34 365.5,390.89 C353.9,400.98 340.05,410.05 326.66,417.68 " fill="none" id="PRODUCT_TOPIC-to-INFO" style="stroke:#181818;stroke-width:1.0;"/><polygon fill="#181818" points="322.75,420.43,332.5565,419.5177,327.1113,417.9848,328.6442,412.5396,322.75,420.43" style="stroke:#181818;stroke-width:1.0;"/><text fill="#000000" font-family="sans-serif" font-size="13" lengthAdjust="spacing" textLength="112" x="461.5" y="303.3069">updates products</text><text fill="#000000" font-family="sans-serif" font-size="13" lengthAdjust="spacing" textLength="43" x="496" y="318.4397">events</text></g><!--link AUCTION_TOPIC to INFO--><g id="link_AUCTION_TOPIC_INFO"><path d="M273.5,329.37 C273.5,352.6 273.5,389.23 273.5,414.61 " fill="none" id="AUCTION_TOPIC-to-INFO" style="stroke:#181818;stroke-width:1.0;"/><polygon fill="#181818" points="273.5,419.48,277.5,410.48,273.5,414.48,269.5,410.48,273.5,419.48" style="stroke:#181818;stroke-width:1.0;"/><text fill="#000000" font-family="sans-serif" font-size="13" lengthAdjust="spacing" textLength="82" x="274.5" y="371.9569">updates final</text><text fill="#000000" font-family="sans-serif" font-size="13" lengthAdjust="spacing" textLength="81" x="275" y="387.0897">deals events</text></g><!--SRC=[XP71Ri8m38RlUGgBUry0JPC62AaNYWQxLKAX3LeaSAewmElFb2ID1u9Raj-_lzzEuqwTGuCU9dlR5cJwYstC13J1h5nib6grrtjDPj0f2RjjjIxdIjtEK1IVsUCKoBlU4B2XHdFXvgHKCuBqkV7MeO1z_SotPRNAUQ4iboCrN0Uma08R3XRriSRMw2FTGzvr60rJE7SCUv6pwrtB6KJEzNUrO7-UCvHHhiUWuJe45L9QKd2F0T9i3uwODm9hl5h_2sYkt8oLqVjHlFS-6TZYmObfozMoaklZLBV7rB16tXx4NWBAnV-hd-35zpts5p-PE7y0]--></g></svg>