<?xml version="1.0" encoding="us-ascii" standalone="no"?><svg xmlns="http://www.w3.org/2000/svg" xmlns:xlink="http://www.w3.org/1999/xlink" contentStyleType="text/css" height="473px" preserveAspectRatio="none" style="width:653px;height:473px;background:#FFFFFF;" version="1.1" viewBox="0 0 653 473" width="653px" zoomAndPan="magnify"><defs/><g><!--entity BIDS--><g id="elem_BIDS"><rect fill="#F1F1F1" height="46.2969" rx="2.5" ry="2.5" style="stroke:#181818;stroke-width:0.5;" width="115" x="7" y="7"/><rect fill="#F1F1F1" height="10" style="stroke:#181818;stroke-width:0.5;" width="15" x="102" y="12"/><rect fill="#F1F1F1" height="2" style="stroke:#181818;stroke-width:0.5;" width="4" x="100" y="14"/><rect fill="#F1F1F1" height="2" style="stroke:#181818;stroke-width:0.5;" width="4" x="100" y="18"/><text fill="#000000" font-family="sans-serif" font-size="14" lengthAdjust="spacing" textLength="75" x="22" y="39.9951">bid-service</text></g><!--entity BIDS_TOPIC--><g id="elem_BIDS_TOPIC"><path d="M40,155.8 C40,145.8 64.5,145.8 64.5,145.8 C64.5,145.8 89,145.8 89,155.8 L89,181.0969 C89,191.0969 64.5,191.0969 64.5,191.0969 C64.5,191.0969 40,191.0969 40,181.0969 L40,155.8 " fill="#F1F1F1" style="stroke:#181818;stroke-width:0.5;"/><path d="M40,155.8 C40,165.8 64.5,165.8 64.5,165.8 C64.5,165.8 89,165.8 89,155.8 " fill="none" style="stroke:#181818;stroke-width:0.5;"/><text fill="#000000" font-family="sans-serif" font-size="14" lengthAdjust="spacing" textLength="29" x="50" y="182.7951">bids</text></g><!--entity AUCTION--><g id="elem_AUCTION"><rect fill="#F1F1F1" height="46.2969" rx="2.5" ry="2.5" style="stroke:#181818;stroke-width:0.5;" width="145" x="217" y="145.3"/><rect fill="#F1F1F1" height="10" style="stroke:#181818;stroke-width:0.5;" width="15" x="342" y="150.3"/><rect fill="#F1F1F1" height="2" style="stroke:#181818;stroke-width:0.5;" width="4" x="340" y="152.3"/><rect fill="#F1F1F1" height="2" style="stroke:#181818;stroke-width:0.5;" width="4" x="340" y="156.3"/><text fill="#000000" font-family="sans-serif" font-size="14" lengthAdjust="spacing" textLength="105" x="232" y="178.2951">auction-service</text></g><!--entity AUCTION_TOPIC--><g id="elem_AUCTION_TOPIC"><path d="M254,293.6 C254,283.6 289.5,283.6 289.5,283.6 C289.5,283.6 325,283.6 325,293.6 L325,318.8969 C325,328.8969 289.5,328.8969 289.5,328.8969 C289.5,328.8969 254,328.8969 254,318.8969 L254,293.6 " fill="#F1F1F1" style="stroke:#181818;stroke-width:0.5;"/><path d="M254,293.6 C254,303.6 289.5,303.6 289.5,303.6 C289.5,303.6 325,303.6 325,293.6 " fill="none" style="stroke:#181818;stroke-width:0.5;"/><text fill="#000000" font-family="sans-serif" font-size="14" lengthAdjust="spacing" textLength="51" x="264" y="320.5951">auction</text></g><!--entity PRODUCT--><g id="elem_PRODUCT"><rect fill="#F1F1F1" height="46.2969" rx="2.5" ry="2.5" style="stroke:#181818;stroke-width:0.5;" width="148" x="477.5" y="7"/><rect fill="#F1F1F1" height="10" style="stroke:#181818;stroke-width:0.5;" width="15" x="605.5" y="12"/><rect fill="#F1F1F1" height="2" style="stroke:#181818;stroke-width:0.5;" width="4" x="603.5" y="14"/><rect fill="#F1F1F1" height="2" style="stroke:#181818;stroke-width:0.5;" width="4" x="603.5" y="18"/><text fill="#000000" font-family="sans-serif" font-size="14" lengthAdjust="spacing" textLength="108" x="492.5" y="39.9951">product-service</text></g><!--entity PRODUCT_TOPIC--><g id="elem_PRODUCT_TOPIC"><path d="M510.5,155.8 C510.5,145.8 551.5,145.8 551.5,145.8 C551.5,145.8 592.5,145.8 592.5,155.8 L592.5,181.0969 C592.5,191.0969 551.5,191.0969 551.5,191.0969 C551.5,191.0969 510.5,191.0969 510.5,181.0969 L510.5,155.8 " fill="#F1F1F1" style="stroke:#181818;stroke-width:0.5;"/><path d="M510.5,155.8 C510.5,165.8 551.5,165.8 551.5,165.8 C551.5,165.8 592.5,165.8 592.5,155.8 " fill="none" style="stroke:#181818;stroke-width:0.5;"/><text fill="#000000" font-family="sans-serif" font-size="14" lengthAdjust="spacing" textLength="62" x="520.5" y="182.7951">products</text></g><!--entity INFO--><g id="elem_INFO"><rect fill="#F1F1F1" height="46.2969" rx="2.5" ry="2.5" style="stroke:#181818;stroke-width:0.5;" width="119" x="230" y="420.89"/><rect fill="#F1F1F1" height="10" style="stroke:#181818;stroke-width:0.5;" width="15" x="329" y="425.89"/><rect fill="#F1F1F1" height="2" style="stroke:#181818;stroke-width:0.5;" width="4" x="327" y="427.89"/><rect fill="#F1F1F1" height="2" style="stroke:#181818;stroke-width:0.5;" width="4" x="327" y="431.89"/><text fill="#000000" font-family="sans-serif" font-size="14" lengthAdjust="spacing" textLength="79" x="245" y="453.8851">info-service</text></g><!--link BIDS to BIDS_TOPIC--><g id="link_BIDS_BIDS_TOPIC"><path d="M64.5,53.66 C64.5,77.18 64.5,114.12 64.5,139.49 " fill="none" id="BIDS-to-BIDS_TOPIC" style="stroke:#181818;stroke-width:1.0;"/><polygon fill="#181818" points="64.5,144.36,68.5,135.36,64.5,139.36,60.5,135.36,64.5,144.36" style="stroke:#181818;stroke-width:1.0;"/><text fill="#000000" font-family="sans-serif" font-size="13" lengthAdjust="spacing" textLength="63" x="65.5" y="96.3669">stores bid</text><text fill="#000000" font-family="sans-serif" font-size="13" lengthAdjust="spacing" textLength="43" x="75.5" y="111.4997">events</text></g><!--link AUCTION to AUCTION_TOPIC--><g id="link_AUCTION_AUCTION_TOPIC"><path d="M289.5,191.87 C289.5,215.3 289.5,252.11 289.5,277.39 " fill="none" id="AUCTION-to-AUCTION_TOPIC" style="stroke:#181818;stroke-width:1.0;"/><polygon fill="#181818" points="289.5,282.24,293.5,273.24,289.5,277.24,285.5,273.24,289.5,282.24" style="stroke:#181818;stroke-width:1.0;"/><text fill="#000000" font-family="sans-serif" font-size="13" lengthAdjust="spacing" textLength="63" x="290.5" y="234.6669">store final</text><text fill="#000000" font-family="sans-serif" font-size="13" lengthAdjust="spacing" textLength="34" x="305" y="249.7997">deals</text></g><!--link BIDS_TOPIC to AUCTION--><g id="link_BIDS_TOPIC_AUCTION"><path d="M89.35,190.26 C96.92,195.63 105.61,200.64 114.5,203.45 C153.21,215.65 198.12,206.2 232.76,194.06 " fill="none" id="BIDS_TOPIC-to-AUCTION" style="stroke:#181818;stroke-width:1.0;"/><polygon fill="#181818" points="237.23,192.09,227.408,191.3633,232.5236,193.778,230.1088,198.8936,237.23,192.09" style="stroke:#181818;stroke-width:1.0;"/><text fill="#000000" font-family="sans-serif" font-size="13" lengthAdjust="spacing" textLength="75" x="115.5" y="184.5169">updates bid</text><text fill="#000000" font-family="sans-serif" font-size="13" lengthAdjust="spacing" textLength="43" x="131.5" y="199.6497">events</text></g><!--reverse link BIDS_TOPIC to AUCTION--><g id="link_BIDS_TOPIC_AUCTION"><path d="M95.42,168.45 C126.59,168.45 175.82,168.45 216.9,168.45 " fill="none" id="BIDS_TOPIC-backto-AUCTION" style="stroke:#181818;stroke-width:1.0;"/><polygon fill="#181818" points="90.44,168.45,99.44,172.45,95.44,168.45,99.44,164.45,90.44,168.45" style="stroke:#181818;stroke-width:1.0;"/><text fill="#000000" font-family="sans-serif" font-size="13" lengthAdjust="spacing" textLength="75" x="115.5" y="146.5169">updates bid</text><text fill="#000000" font-family="sans-serif" font-size="13" lengthAdjust="spacing" textLength="91" x="107.5" y="161.6497">with new state</text></g><!--link PRODUCT to PRODUCT_TOPIC--><g id="link_PRODUCT_PRODUCT_TOPIC"><path d="M551.5,53.66 C551.5,77.18 551.5,114.12 551.5,139.49 " fill="none" id="PRODUCT-to-PRODUCT_TOPIC" style="stroke:#181818;stroke-width:1.0;"/><polygon fill="#181818" points="551.5,144.36,555.5,135.36,551.5,139.36,547.5,135.36,551.5,144.36" style="stroke:#181818;stroke-width:1.0;"/><text fill="#000000" font-family="sans-serif" font-size="13" lengthAdjust="spacing" textLength="93" x="552.5" y="96.3669">stores product</text><text fill="#000000" font-family="sans-serif" font-size="13" lengthAdjust="spacing" textLength="43" x="577.5" y="111.4997">events</text></g><!--link AUCTION to PRODUCT_TOPIC--><g id="link_AUCTION_PRODUCT_TOPIC"><path d="M362.48,168.45 C407.94,168.45 465.08,168.45 504.57,168.45 " fill="none" id="AUCTION-to-PRODUCT_TOPIC" style="stroke:#181818;stroke-width:1.0;"/><polygon fill="#181818" points="509.27,168.45,500.27,164.45,504.27,168.45,500.27,172.45,509.27,168.45" style="stroke:#181818;stroke-width:1.0;"/><text fill="#000000" font-family="sans-serif" font-size="13" lengthAdjust="spacing" textLength="112" x="380.25" y="146.5169">updates products</text><text fill="#000000" font-family="sans-serif" font-size="13" lengthAdjust="spacing" textLength="91" x="390.75" y="161.6497">with new state</text></g><!--reverse link AUCTION to PRODUCT_TOPIC--><g id="link_AUCTION_PRODUCT_TOPIC"><path d="M345.89,194.08 C356.75,197.96 368.19,201.37 379.25,203.45 C404.15,208.13 468.84,210.22 493.25,203.45 C502.46,200.89 511.67,196.45 519.96,191.57 " fill="none" id="AUCTION-backto-PRODUCT_TOPIC" style="stroke:#181818;stroke-width:1.0;"/><polygon fill="#181818" points="341.26,192,348.3194,198.8677,345.951,193.7305,351.0882,191.3621,341.26,192" style="stroke:#181818;stroke-width:1.0;"/><text fill="#000000" font-family="sans-serif" font-size="13" lengthAdjust="spacing" textLength="112" x="380.25" y="184.5169">updates products</text><text fill="#000000" font-family="sans-serif" font-size="13" lengthAdjust="spacing" textLength="43" x="414.75" y="199.6497">events</text></g><!--link BIDS_TOPIC to INFO--><g id="link_BIDS_TOPIC_INFO"><path d="M76.62,191.46 C94.63,223.3 130.45,283.38 168.5,328.89 C195.99,361.78 232.27,394.9 257.92,416.93 " fill="none" id="BIDS_TOPIC-to-INFO" style="stroke:#181818;stroke-width:1.0;"/><polygon fill="#181818" points="261.26,420.64,257.0106,411.7551,257.4567,417.3943,251.8174,417.8404,261.26,420.64" style="stroke:#181818;stroke-width:1.0;"/><text fill="#000000" font-family="sans-serif" font-size="13" lengthAdjust="spacing" textLength="52" x="176.5" y="303.3069">updates</text><text fill="#000000" font-family="sans-serif" font-size="13" lengthAdjust="spacing" textLength="66" x="169.5" y="318.4397">bid events</text></g><!--link PRODUCT_TOPIC to INFO--><g id="link_PRODUCT_TOPIC_INFO"><path d="M538.7,191.59 C513.18,234.32 452.26,329.34 381.5,390.89 C369.9,400.98 356.05,410.05 342.66,417.68 " fill="none" id="PRODUCT_TOPIC-to-INFO" style="stroke:#181818;stroke-width:1.0;"/><polygon fill="#181818" points="338.75,420.43,348.5565,419.5177,343.1113,417.9848,344.6442,412.5396,338.75,420.43" style="stroke:#181818;stroke-width:1.0;"/><text fill="#000000" font-family="sans-serif" font-size="13" lengthAdjust="spacing" textLength="112" x="477.5" y="303.3069">updates products</text><text fill="#000000" font-family="sans-serif" font-size="13" lengthAdjust="spacing" textLength="43" x="512" y="318.4397">events</text></g><!--link AUCTION_TOPIC to INFO--><g id="link_AUCTION_TOPIC_INFO"><path d="M289.5,329.37 C289.5,352.6 289.5,389.23 289.5,414.61 " fill="none" id="AUCTION_TOPIC-to-INFO" style="stroke:#181818;stroke-width:1.0;"/><polygon fill="#181818" points="289.5,419.48,293.5,410.48,289.5,414.48,285.5,410.48,289.5,419.48" style="stroke:#181818;stroke-width:1.0;"/><text fill="#000000" font-family="sans-serif" font-size="13" lengthAdjust="spacing" textLength="82" x="290.5" y="371.9569">updates final</text><text fill="#000000" font-family="sans-serif" font-size="13" lengthAdjust="spacing" textLength="81" x="291" y="387.0897">deals events</text></g><!--SRC=[XL71Ri8m3BtdAopk_G4qJTf0atgXYB5RfIcqGOi4JbK7-FsPagGn1N5B_FpythCRT-mS6lGmszcs8DEVRMDce0a-o-MtKgtsUgV933Wbu7TRhSk5KjSt5CLxLfm3UTSR0YRKQCuyd9HgHY5zQhnrACG-VXRRibhbUg4jXwDg-0x20WhQiBUe3pMsHX_ePlA6mqYOmwbZiNkVMUzRyQJtOlqVeBcm61T5jgvtBViMsTQRQibpycoXZN8yXWlV8Po0qc83UpITzZ5XHDzHS6e-SZdjI-w3OrhSEv6sN7rLSkNiwbfC0slaBKAS9KIv-RxxWRmu-NI-k7xI-GS0]--></g></svg>