<?xml version="1.0" encoding="us-ascii" standalone="no"?><svg xmlns="http://www.w3.org/2000/svg" xmlns:xlink="http://www.w3.org/1999/xlink" contentStyleType="text/css" height="473px" preserveAspectRatio="none" style="width:595px;height:473px;background:#FFFFFF;" version="1.1" viewBox="0 0 595 473" width="595px" zoomAndPan="magnify"><defs/><g><!--entity BIDS--><g id="elem_BIDS"><rect fill="#F1F1F1" height="46.2969" rx="2.5" ry="2.5" style="stroke:#181818;stroke-width:0.5;" width="115" x="223" y="7"/><rect fill="#F1F1F1" height="10" style="stroke:#181818;stroke-width:0.5;" width="15" x="318" y="12"/><rect fill="#F1F1F1" height="2" style="stroke:#181818;stroke-width:0.5;" width="4" x="316" y="14"/><rect fill="#F1F1F1" height="2" style="stroke:#181818;stroke-width:0.5;" width="4" x="316" y="18"/><text fill="#000000" font-family="sans-serif" font-size="14" lengthAdjust="spacing" textLength="75" x="238" y="39.9951">bid-service</text></g><!--entity BIDS_TOPIC--><g id="elem_BIDS_TOPIC"><path d="M6,155.8 C6,145.8 30.5,145.8 30.5,145.8 C30.5,145.8 55,145.8 55,155.8 L55,181.0969 C55,191.0969 30.5,191.0969 30.5,191.0969 C30.5,191.0969 6,191.0969 6,181.0969 L6,155.8 " fill="#F1F1F1" style="stroke:#181818;stroke-width:0.5;"/><path d="M6,155.8 C6,165.8 30.5,165.8 30.5,165.8 C30.5,165.8 55,165.8 55,155.8 " fill="none" style="stroke:#181818;stroke-width:0.5;"/><text fill="#000000" font-family="sans-serif" font-size="14" lengthAdjust="spacing" textLength="29" x="16" y="182.7951">bids</text></g><!--entity RECIPE--><g id="elem_RECIPE"><rect fill="#F1F1F1" height="46.2969" rx="2.5" ry="2.5" style="stroke:#181818;stroke-width:0.5;" width="137" x="167" y="145.3"/><rect fill="#F1F1F1" height="10" style="stroke:#181818;stroke-width:0.5;" width="15" x="284" y="150.3"/><rect fill="#F1F1F1" height="2" style="stroke:#181818;stroke-width:0.5;" width="4" x="282" y="152.3"/><rect fill="#F1F1F1" height="2" style="stroke:#181818;stroke-width:0.5;" width="4" x="282" y="156.3"/><text fill="#000000" font-family="sans-serif" font-size="14" lengthAdjust="spacing" textLength="97" x="182" y="178.2951">recipe-service</text></g><!--entity RECIPE_TOPIC--><g id="elem_RECIPE_TOPIC"><path d="M204,293.6 C204,283.6 235.5,283.6 235.5,283.6 C235.5,283.6 267,283.6 267,293.6 L267,318.8969 C267,328.8969 235.5,328.8969 235.5,328.8969 C235.5,328.8969 204,328.8969 204,318.8969 L204,293.6 " fill="#F1F1F1" style="stroke:#181818;stroke-width:0.5;"/><path d="M204,293.6 C204,303.6 235.5,303.6 235.5,303.6 C235.5,303.6 267,303.6 267,293.6 " fill="none" style="stroke:#181818;stroke-width:0.5;"/><text fill="#000000" font-family="sans-serif" font-size="14" lengthAdjust="spacing" textLength="43" x="214" y="320.5951">recipe</text></g><!--entity PRODUCT--><g id="elem_PRODUCT"><rect fill="#F1F1F1" height="46.2969" rx="2.5" ry="2.5" style="stroke:#181818;stroke-width:0.5;" width="148" x="419.5" y="7"/><rect fill="#F1F1F1" height="10" style="stroke:#181818;stroke-width:0.5;" width="15" x="547.5" y="12"/><rect fill="#F1F1F1" height="2" style="stroke:#181818;stroke-width:0.5;" width="4" x="545.5" y="14"/><rect fill="#F1F1F1" height="2" style="stroke:#181818;stroke-width:0.5;" width="4" x="545.5" y="18"/><text fill="#000000" font-family="sans-serif" font-size="14" lengthAdjust="spacing" textLength="108" x="434.5" y="39.9951">product-service</text></g><!--entity PRODUCT_TOPIC--><g id="elem_PRODUCT_TOPIC"><path d="M452.5,155.8 C452.5,145.8 493.5,145.8 493.5,145.8 C493.5,145.8 534.5,145.8 534.5,155.8 L534.5,181.0969 C534.5,191.0969 493.5,191.0969 493.5,191.0969 C493.5,191.0969 452.5,191.0969 452.5,181.0969 L452.5,155.8 " fill="#F1F1F1" style="stroke:#181818;stroke-width:0.5;"/><path d="M452.5,155.8 C452.5,165.8 493.5,165.8 493.5,165.8 C493.5,165.8 534.5,165.8 534.5,155.8 " fill="none" style="stroke:#181818;stroke-width:0.5;"/><text fill="#000000" font-family="sans-serif" font-size="14" lengthAdjust="spacing" textLength="62" x="462.5" y="182.7951">products</text></g><!--entity INFO--><g id="elem_INFO"><rect fill="#F1F1F1" height="46.2969" rx="2.5" ry="2.5" style="stroke:#181818;stroke-width:0.5;" width="119" x="176" y="420.89"/><rect fill="#F1F1F1" height="10" style="stroke:#181818;stroke-width:0.5;" width="15" x="275" y="425.89"/><rect fill="#F1F1F1" height="2" style="stroke:#181818;stroke-width:0.5;" width="4" x="273" y="427.89"/><rect fill="#F1F1F1" height="2" style="stroke:#181818;stroke-width:0.5;" width="4" x="273" y="431.89"/><text fill="#000000" font-family="sans-serif" font-size="14" lengthAdjust="spacing" textLength="79" x="191" y="453.8851">info-service</text></g><!--link BIDS to BIDS_TOPIC--><g id="link_BIDS_BIDS_TOPIC"><path d="M239.22,53.66 C188.98,81.05 105.34,126.65 60.72,150.97 " fill="none" id="BIDS-to-BIDS_TOPIC" style="stroke:#181818;stroke-width:1.0;"/><polygon fill="#181818" points="56.47,153.83,66.2874,153.0431,60.8622,151.4408,62.4646,146.0156,56.47,153.83" style="stroke:#181818;stroke-width:1.0;"/><text fill="#000000" font-family="sans-serif" font-size="13" lengthAdjust="spacing" textLength="63" x="179.5" y="96.3669">stores bid</text><text fill="#000000" font-family="sans-serif" font-size="13" lengthAdjust="spacing" textLength="43" x="189.5" y="111.4997">events</text></g><!--link RECIPE to RECIPE_TOPIC--><g id="link_RECIPE_RECIPE_TOPIC"><path d="M235.5,191.87 C235.5,215.3 235.5,252.11 235.5,277.39 " fill="none" id="RECIPE-to-RECIPE_TOPIC" style="stroke:#181818;stroke-width:1.0;"/><polygon fill="#181818" points="235.5,282.24,239.5,273.24,235.5,277.24,231.5,273.24,235.5,282.24" style="stroke:#181818;stroke-width:1.0;"/><text fill="#000000" font-family="sans-serif" font-size="13" lengthAdjust="spacing" textLength="63" x="236.5" y="234.6669">store final</text><text fill="#000000" font-family="sans-serif" font-size="13" lengthAdjust="spacing" textLength="34" x="251" y="249.7997">deals</text></g><!--link BIDS_TOPIC to RECIPE--><g id="link_BIDS_TOPIC_RECIPE"><path d="M55.23,168.45 C81.31,168.45 123.68,168.45 160.8,168.45 " fill="none" id="BIDS_TOPIC-to-RECIPE" style="stroke:#181818;stroke-width:1.0;"/><polygon fill="#181818" points="165.71,168.45,156.71,164.45,160.71,168.45,156.71,172.45,165.71,168.45" style="stroke:#181818;stroke-width:1.0;"/><text fill="#000000" font-family="sans-serif" font-size="13" lengthAdjust="spacing" textLength="75" x="73.5" y="146.5169">updates bid</text><text fill="#000000" font-family="sans-serif" font-size="13" lengthAdjust="spacing" textLength="43" x="89.5" y="161.6497">events</text></g><!--link PRODUCT to PRODUCT_TOPIC--><g id="link_PRODUCT_PRODUCT_TOPIC"><path d="M493.5,53.66 C493.5,77.18 493.5,114.12 493.5,139.49 " fill="none" id="PRODUCT-to-PRODUCT_TOPIC" style="stroke:#181818;stroke-width:1.0;"/><polygon fill="#181818" points="493.5,144.36,497.5,135.36,493.5,139.36,489.5,135.36,493.5,144.36" style="stroke:#181818;stroke-width:1.0;"/><text fill="#000000" font-family="sans-serif" font-size="13" lengthAdjust="spacing" textLength="93" x="494.5" y="96.3669">stores product</text><text fill="#000000" font-family="sans-serif" font-size="13" lengthAdjust="spacing" textLength="43" x="519.5" y="111.4997">events</text></g><!--link RECIPE to PRODUCT_TOPIC--><g id="link_RECIPE_PRODUCT_TOPIC"><path d="M304.3,168.45 C349.26,168.45 406.8,168.45 446.55,168.45 " fill="none" id="RECIPE-to-PRODUCT_TOPIC" style="stroke:#181818;stroke-width:1.0;"/><polygon fill="#181818" points="451.29,168.45,442.29,164.45,446.29,168.45,442.29,172.45,451.29,168.45" style="stroke:#181818;stroke-width:1.0;"/><text fill="#000000" font-family="sans-serif" font-size="13" lengthAdjust="spacing" textLength="112" x="322.25" y="146.5169">updates products</text><text fill="#000000" font-family="sans-serif" font-size="13" lengthAdjust="spacing" textLength="93" x="331.75" y="161.6497">with final deals</text></g><!--link BIDS_TOPIC to INFO--><g id="link_BIDS_TOPIC_INFO"><path d="M40.16,191.56 C54.68,223.52 84.11,283.75 118.5,328.89 C143.86,362.18 178.83,395 203.92,416.84 " fill="none" id="BIDS_TOPIC-to-INFO" style="stroke:#181818;stroke-width:1.0;"/><polygon fill="#181818" points="207.17,420.52,202.9757,411.6089,203.3868,417.2508,197.745,417.6619,207.17,420.52" style="stroke:#181818;stroke-width:1.0;"/><text fill="#000000" font-family="sans-serif" font-size="13" lengthAdjust="spacing" textLength="52" x="126.5" y="303.3069">updates</text><text fill="#000000" font-family="sans-serif" font-size="13" lengthAdjust="spacing" textLength="66" x="119.5" y="318.4397">bid events</text></g><!--link PRODUCT_TOPIC to INFO--><g id="link_PRODUCT_TOPIC_INFO"><path d="M481.32,191.29 C456.73,233.9 397.48,329.32 327.5,390.89 C315.96,401.05 302.13,410.14 288.74,417.77 " fill="none" id="PRODUCT_TOPIC-to-INFO" style="stroke:#181818;stroke-width:1.0;"/><polygon fill="#181818" points="284.83,420.52,294.6365,419.6077,289.1913,418.0748,290.7242,412.6296,284.83,420.52" style="stroke:#181818;stroke-width:1.0;"/><text fill="#000000" font-family="sans-serif" font-size="13" lengthAdjust="spacing" textLength="112" x="421.5" y="303.3069">updates products</text><text fill="#000000" font-family="sans-serif" font-size="13" lengthAdjust="spacing" textLength="43" x="456" y="318.4397">events</text></g><!--link RECIPE_TOPIC to INFO--><g id="link_RECIPE_TOPIC_INFO"><path d="M235.5,329.37 C235.5,352.6 235.5,389.23 235.5,414.61 " fill="none" id="RECIPE_TOPIC-to-INFO" style="stroke:#181818;stroke-width:1.0;"/><polygon fill="#181818" points="235.5,419.48,239.5,410.48,235.5,414.48,231.5,410.48,235.5,419.48" style="stroke:#181818;stroke-width:1.0;"/><text fill="#000000" font-family="sans-serif" font-size="13" lengthAdjust="spacing" textLength="82" x="236.5" y="371.9569">updates final</text><text fill="#000000" font-family="sans-serif" font-size="13" lengthAdjust="spacing" textLength="81" x="237" y="387.0897">deals events</text></g><!--reverse link BIDS to PRODUCT_TOPIC--><g id="link_BIDS_PRODUCT_TOPIC"><path d="M304.25,57.44 C321.57,75.47 346.32,98.98 371.5,115.3 C396.63,131.59 427.7,144.78 452.19,153.82 " fill="none" id="BIDS-backto-PRODUCT_TOPIC" style="stroke:#181818;stroke-width:1.0;"/><polygon fill="#181818" points="301.45,54.45,304.743,63.732,304.8915,58.0771,310.5464,58.2256,301.45,54.45" style="stroke:#181818;stroke-width:1.0;"/><text fill="#000000" font-family="sans-serif" font-size="13" lengthAdjust="spacing" textLength="112" x="372.5" y="96.3669">updates products</text><text fill="#000000" font-family="sans-serif" font-size="13" lengthAdjust="spacing" textLength="43" x="407" y="111.4997">events</text></g><!--SRC=[XP9DRi8m48NtFiM8lI-048i6aB8X4OLTfCeuWse9x2XZuFeryGysLUakzdipxvjnfBaCHgEsC3kgdXEEDoLn1eBWervzCjOBAuw2SD8f2L_xfgqhnXxVmFaokvm3MJCYWIleDDvSSs9CFeD6b6h08ckthkfsdQTvKoR6H7-QCdCXfC99QN7kT8_YJ1xFwv3ySxWEBkSDu32Q_YfjGTZkcjMXskU8mKQv7Yd3SS8ifBITKFq4Y8FzAeYuCQ_JTsM__QGG1itebJwP0htURffo5IxZSPbQTzgj0Y984U_Ch-uCf6J_gttnA2bc-dKMdFy_RgZu0G00]--></g></svg>