<?xml version="1.0" encoding="us-ascii" standalone="no"?><svg xmlns="http://www.w3.org/2000/svg" xmlns:xlink="http://www.w3.org/1999/xlink" contentStyleType="text/css" height="377px" preserveAspectRatio="none" style="width:297px;height:377px;background:#FFFFFF;" version="1.1" viewBox="0 0 297 377" width="297px" zoomAndPan="magnify"><defs/><g><ellipse cx="47.5" cy="16" fill="#181818" rx="10" ry="10" style="stroke:none;stroke-width:1.0;"/><rect fill="#F1F1F1" height="40" rx="12.5" ry="12.5" style="stroke:#181818;stroke-width:0.5;" width="81" x="7" y="118"/><text fill="#000000" font-family="sans-serif" font-size="14" lengthAdjust="spacing" textLength="71" x="12" y="142.8467">Submitted</text><rect fill="#F1F1F1" height="40" rx="12.5" ry="12.5" style="stroke:#181818;stroke-width:0.5;" width="78" x="34.5" y="250"/><text fill="#000000" font-family="sans-serif" font-size="14" lengthAdjust="spacing" textLength="68" x="39.5" y="274.8467">Cancelled</text><rect fill="#F1F1F1" height="40" rx="12.5" ry="12.5" style="stroke:#181818;stroke-width:0.5;" width="86" x="180.5" y="118"/><text fill="#000000" font-family="sans-serif" font-size="14" lengthAdjust="spacing" textLength="76" x="185.5" y="142.8467">BidsPlaced</text><rect fill="#F1F1F1" height="40" rx="12.5" ry="12.5" style="stroke:#181818;stroke-width:0.5;" width="100" x="149.5" y="250"/><text fill="#000000" font-family="sans-serif" font-size="14" lengthAdjust="spacing" textLength="90" x="154.5" y="274.8467">AuctionDone</text><ellipse cx="134.5" cy="361" fill="none" rx="10" ry="10" style="stroke:#181818;stroke-width:1.0;"/><ellipse cx="135" cy="361.5" fill="#181818" rx="6" ry="6" style="stroke:none;stroke-width:1.0;"/><!--link *start* to Submitted--><g id="link_*start*_Submitted"><path d="M47.5,26.42 C47.5,44.7 47.5,85.56 47.5,112.16 " fill="none" id="*start*-to-Submitted" style="stroke:#181818;stroke-width:1.0;"/><polygon fill="#181818" points="47.5,116.94,51.5,107.94,47.5,111.94,43.5,107.94,47.5,116.94" style="stroke:#181818;stroke-width:1.0;"/><text fill="#000000" font-family="sans-serif" font-size="13" lengthAdjust="spacing" textLength="93" x="48.5" y="69.0669">owner submits</text><text fill="#000000" font-family="sans-serif" font-size="13" lengthAdjust="spacing" textLength="74" x="58" y="84.1997">the product</text></g><!--link Submitted to Cancelled--><g id="link_Submitted_Cancelled"><path d="M51.39,158.46 C55.96,181.28 63.53,219.15 68.52,244.09 " fill="none" id="Submitted-to-Cancelled" style="stroke:#181818;stroke-width:1.0;"/><polygon fill="#181818" points="69.67,248.83,71.8165,239.2179,68.6839,243.9282,63.9736,240.7956,69.67,248.83" style="stroke:#181818;stroke-width:1.0;"/><text fill="#000000" font-family="sans-serif" font-size="13" lengthAdjust="spacing" textLength="90" x="65.5" y="201.0669">owner cancels</text><text fill="#000000" font-family="sans-serif" font-size="13" lengthAdjust="spacing" textLength="47" x="87" y="216.1997">auction</text></g><!--link Submitted to BidsPlaced--><g id="link_Submitted_BidsPlaced"><path d="M88.32,138 C114.01,138 147.32,138 174.45,138 " fill="none" id="Submitted-to-BidsPlaced" style="stroke:#181818;stroke-width:1.0;"/><polygon fill="#181818" points="179.14,138,170.14,134,174.14,138,170.14,142,179.14,138" style="stroke:#181818;stroke-width:1.0;"/><text fill="#000000" font-family="sans-serif" font-size="13" lengthAdjust="spacing" textLength="47" x="110.75" y="116.0669">first bid</text><text fill="#000000" font-family="sans-serif" font-size="13" lengthAdjust="spacing" textLength="56" x="106.25" y="131.1997">is placed</text></g><!--link BidsPlaced to AuctionDone--><g id="link_BidsPlaced_AuctionDone"><path d="M219.91,158.46 C215.69,181.28 208.7,219.15 204.1,244.09 " fill="none" id="BidsPlaced-to-AuctionDone" style="stroke:#181818;stroke-width:1.0;"/><polygon fill="#181818" points="203.04,248.83,208.6187,240.7135,203.9545,243.9143,200.7537,239.2502,203.04,248.83" style="stroke:#181818;stroke-width:1.0;"/><text fill="#000000" font-family="sans-serif" font-size="13" lengthAdjust="spacing" textLength="75" x="214.5" y="201.0669">no new bids</text><text fill="#000000" font-family="sans-serif" font-size="13" lengthAdjust="spacing" textLength="67" x="218.5" y="216.1997">are placed</text></g><!--link AuctionDone to *end*--><g id="link_AuctionDone_*end*"><path d="M185.4,290.31 C172.65,307.77 154.27,332.93 143.44,347.76 " fill="none" id="AuctionDone-to-*end*" style="stroke:#181818;stroke-width:1.0;"/><polygon fill="#181818" points="140.08,351.37,148.6106,346.4476,143.0226,347.3276,142.1426,341.7396,140.08,351.37" style="stroke:#181818;stroke-width:1.0;"/></g><!--link Cancelled to *end*--><g id="link_Cancelled_*end*"><path d="M86.74,290.31 C98.7,307.77 115.95,332.93 126.11,347.76 " fill="none" id="Cancelled-to-*end*" style="stroke:#181818;stroke-width:1.0;"/><polygon fill="#181818" points="129.27,351.37,127.4674,341.6875,126.4374,347.2498,120.8751,346.2197,129.27,351.37" style="stroke:#181818;stroke-width:1.0;"/></g><!--SRC=[JOyz2iCm34Ptdq9p8HV84EZF0GeTcmwEhHA18njR8VJsjLtgPFruxo7DP15m2V81Yyb42aAUbNgUNj1r0ppMQI4Hj3tuZJ52gaCQMMQ44BrTZQX6LUUgsQ1pksFga1sTuP8_y0DSoAQxqwRmRuf9O28xCYK8TLKxKFFdN-Jc6NjW3unRCKe-ujyvG5NA_wXsLrk-]--></g></svg>